<?xml version="1.0" encoding="UTF-8" standalone="no"?>
<!DOCTYPE svg PUBLIC "-//W3C//DTD SVG 1.1//EN" "http://www.w3.org/Graphics/SVG/1.1/DTD/svg11.dtd">
<svg width="100%" height="100%" viewBox="0 0 456 456" version="1.1" xmlns="http://www.w3.org/2000/svg" xmlns:xlink="http://www.w3.org/1999/xlink" xml:space="preserve" xmlns:serif="http://www.serif.com/" style="fill-rule:evenodd;clip-rule:evenodd;stroke-linejoin:round;stroke-miterlimit:2;">
    <path d="M285.969,35.103L101.598,219.905L285.969,408.154L473.787,219.905L285.969,35.103Z"/>
    <g transform="matrix(0.761617,0,0,0.761617,105.157,87.4651)">
        <path d="M286.701,-122.209L-137.655,294.998L-131.176,301.477L293.18,-115.73L286.701,-122.209Z" style="fill:white;"/>
    </g>
    <g transform="matrix(1,0,0,1,262.918,262.918)">
        <path d="M186.256,-23.456L-25.688,184.918L-19.21,191.397L192.734,-16.977L186.256,-23.456Z" style="fill:white;"/>
    </g>
    <g transform="matrix(6.12323e-17,-1,1,6.12323e-17,103.171,391.545)">
        <path d="M266.349,-102.2L-63.04,221.64L-56.561,228.119L272.828,-95.721L266.349,-102.2Z" style="fill:white;"/>
    </g>
    <g transform="matrix(6.12323e-17,-1,1,6.12323e-17,289.816,204.9)">
        <path d="M195.894,-31.402L0.343,159.325L6.822,165.804L202.373,-24.923L195.894,-31.402Z" style="fill:white;"/>
    </g>
    <g transform="matrix(3.11298,0,0,2.9599,-69.9235,-351.495)">
        <path d="M48.004,185.791L48.004,170.63L34.21,150L39.971,150L47.027,160.791C48.329,162.809 49.542,164.827 50.665,166.846C51.739,164.974 53.041,162.866 54.571,160.522L61.505,150L67.022,150L52.74,170.63L52.74,185.791L48.004,185.791Z" style="fill:white;fill-rule:nonzero;stroke:black;stroke-width:0.33px;"/>
    </g>
    <g transform="matrix(2.28589,0,0,2.28589,-14.4905,-226.271)">
        <path d="M63.629,185.791L77.374,150L82.476,150L97.125,185.791L91.729,185.791L87.554,174.951L72.589,174.951L68.658,185.791L63.629,185.791ZM73.956,171.094L86.09,171.094L82.354,161.181C81.215,158.17 80.368,155.696 79.815,153.76C79.359,156.055 78.716,158.333 77.886,160.596L73.956,171.094Z" style="fill:white;fill-rule:nonzero;stroke:black;stroke-width:0.44px;"/>
    </g>
    <g transform="matrix(2.28589,0,0,2.90275,-14.4905,-341.254)">
        <path d="M99.298,174.292L103.765,173.901C103.977,175.692 104.469,177.161 105.242,178.308C106.015,179.455 107.216,180.383 108.843,181.091C110.471,181.799 112.302,182.153 114.337,182.153C116.143,182.153 117.738,181.885 119.122,181.348C120.505,180.81 121.535,180.074 122.21,179.138C122.886,178.202 123.223,177.181 123.223,176.074C123.223,174.951 122.898,173.97 122.247,173.132C121.596,172.294 120.521,171.59 119.024,171.02C118.064,170.646 115.94,170.064 112.652,169.275C109.364,168.485 107.061,167.741 105.743,167.041C104.034,166.146 102.76,165.035 101.922,163.708C101.084,162.382 100.665,160.897 100.665,159.253C100.665,157.446 101.177,155.758 102.203,154.187C103.228,152.616 104.726,151.424 106.695,150.61C108.664,149.796 110.853,149.39 113.262,149.39C115.915,149.39 118.255,149.817 120.281,150.671C122.308,151.526 123.866,152.783 124.957,154.443C126.047,156.103 126.633,157.983 126.715,160.083L122.173,160.425C121.929,158.162 121.103,156.453 119.695,155.298C118.288,154.142 116.208,153.564 113.458,153.564C110.593,153.564 108.506,154.089 107.195,155.139C105.885,156.189 105.23,157.454 105.23,158.935C105.23,160.221 105.694,161.279 106.622,162.109C107.533,162.939 109.914,163.79 113.763,164.661C117.612,165.531 120.253,166.292 121.685,166.943C123.769,167.904 125.307,169.12 126.299,170.593C127.292,172.066 127.789,173.763 127.789,175.683C127.789,177.588 127.243,179.382 126.153,181.067C125.062,182.751 123.496,184.062 121.453,184.997C119.411,185.933 117.112,186.401 114.556,186.401C111.317,186.401 108.603,185.929 106.414,184.985C104.225,184.041 102.508,182.621 101.263,180.725C100.018,178.829 99.363,176.684 99.298,174.292Z" style="fill:white;fill-rule:nonzero;stroke:black;stroke-width:0.38px;"/>
    </g>
    <g transform="matrix(1.09411,0,0,1.09411,64.1732,49.1123)">
        <path d="M157.745,150L162.481,150L162.481,170.679C162.481,174.276 162.074,177.132 161.26,179.248C160.447,181.364 158.978,183.085 156.854,184.411C154.73,185.738 151.942,186.401 148.492,186.401C145.139,186.401 142.396,185.823 140.264,184.668C138.132,183.512 136.61,181.84 135.699,179.651C134.787,177.462 134.332,174.471 134.332,170.679L134.332,150L139.068,150L139.068,170.654C139.068,173.763 139.357,176.054 139.935,177.527C140.513,179 141.505,180.135 142.913,180.932C144.321,181.73 146.042,182.129 148.077,182.129C151.56,182.129 154.042,181.339 155.523,179.761C157.004,178.182 157.745,175.146 157.745,170.654L157.745,150Z" style="fill:white;fill-rule:nonzero;stroke:black;stroke-width:0.91px;"/>
    </g>
    <g transform="matrix(1.09411,0,0,1.09411,64.1732,49.1123)">
        <path d="M170.367,185.791L170.367,150L182.696,150C185.479,150 187.603,150.171 189.068,150.513C191.119,150.985 192.868,151.839 194.317,153.076C196.205,154.671 197.617,156.71 198.553,159.192C199.489,161.674 199.957,164.51 199.957,167.7C199.957,170.418 199.639,172.827 199.005,174.927C198.37,177.026 197.556,178.764 196.563,180.139C195.57,181.514 194.484,182.597 193.304,183.386C192.124,184.175 190.7,184.774 189.031,185.181C187.363,185.587 185.447,185.791 183.282,185.791L170.367,185.791ZM175.103,181.567L182.745,181.567C185.105,181.567 186.956,181.348 188.299,180.908C189.642,180.469 190.712,179.85 191.509,179.053C192.632,177.93 193.507,176.42 194.134,174.524C194.761,172.628 195.074,170.329 195.074,167.627C195.074,163.883 194.459,161.007 193.231,158.996C192.002,156.986 190.508,155.64 188.751,154.956C187.481,154.468 185.438,154.223 182.623,154.223L175.103,154.223L175.103,181.567Z" style="fill:white;fill-rule:nonzero;stroke:black;stroke-width:0.91px;"/>
    </g>
    <g transform="matrix(1.09411,0,0,1.09411,64.1732,49.1123)">
        <path d="M205.035,168.359C205.035,162.418 206.63,157.768 209.82,154.407C213.01,151.046 217.128,149.365 222.173,149.365C225.478,149.365 228.456,150.154 231.109,151.733C233.762,153.312 235.784,155.513 237.176,158.337C238.568,161.161 239.263,164.363 239.263,167.944C239.263,171.574 238.531,174.821 237.066,177.685C235.601,180.55 233.526,182.719 230.84,184.192C228.155,185.665 225.258,186.401 222.149,186.401C218.78,186.401 215.769,185.587 213.116,183.96C210.463,182.332 208.453,180.111 207.086,177.295C205.718,174.479 205.035,171.501 205.035,168.359ZM209.918,168.432C209.918,172.746 211.077,176.143 213.397,178.625C215.716,181.107 218.625,182.348 222.125,182.348C225.689,182.348 228.623,181.095 230.926,178.589C233.229,176.082 234.381,172.526 234.381,167.92C234.381,165.006 233.888,162.463 232.903,160.29C231.919,158.118 230.478,156.433 228.582,155.237C226.686,154.04 224.558,153.442 222.198,153.442C218.845,153.442 215.96,154.594 213.543,156.897C211.126,159.2 209.918,163.045 209.918,168.432Z" style="fill:white;fill-rule:nonzero;stroke:black;stroke-width:0.91px;"/>
    </g>
    <g transform="matrix(1.09411,0,0,1.09411,64.1732,49.1123)">
        <path d="M245.172,185.791L245.172,150L249.908,150L249.908,167.749L267.681,150L274.102,150L259.088,164.502L274.761,185.791L268.511,185.791L255.767,167.676L249.908,173.389L249.908,185.791L245.172,185.791Z" style="fill:white;fill-rule:nonzero;stroke:black;stroke-width:0.91px;"/>
    </g>
    <g transform="matrix(1.09411,0,0,1.09411,64.1732,49.1123)">
        <path d="M302.203,150L306.939,150L306.939,170.679C306.939,174.276 306.532,177.132 305.718,179.248C304.905,181.364 303.436,183.085 301.312,184.411C299.188,185.738 296.4,186.401 292.95,186.401C289.597,186.401 286.854,185.823 284.722,184.668C282.59,183.512 281.068,181.84 280.157,179.651C279.245,177.462 278.79,174.471 278.79,170.679L278.79,150L283.526,150L283.526,170.654C283.526,173.763 283.815,176.054 284.393,177.527C284.971,179 285.963,180.135 287.371,180.932C288.779,181.73 290.5,182.129 292.535,182.129C296.018,182.129 298.5,181.339 299.981,179.761C301.462,178.182 302.203,175.146 302.203,170.654L302.203,150Z" style="fill:white;fill-rule:nonzero;stroke:black;stroke-width:0.91px;"/>
    </g>
    <g transform="matrix(3.23149,3.23149,-3.23149,3.23149,635.171,-1151.9)">
        <path d="M145.256,337.846L149.48,337.455C149.838,339.441 150.521,340.881 151.53,341.776C152.54,342.672 153.834,343.119 155.412,343.119C156.763,343.119 157.947,342.81 158.965,342.191C159.982,341.573 160.816,340.747 161.467,339.713C162.118,338.68 162.663,337.284 163.103,335.526C163.542,333.769 163.762,331.978 163.762,330.155C163.762,329.96 163.754,329.667 163.737,329.276C162.859,330.676 161.658,331.811 160.136,332.682C158.615,333.553 156.967,333.988 155.193,333.988C152.23,333.988 149.724,332.914 147.673,330.766C145.622,328.617 144.597,325.785 144.597,322.27C144.597,318.64 145.667,315.718 147.807,313.505C149.948,311.291 152.629,310.185 155.852,310.185C158.179,310.185 160.307,310.811 162.236,312.065C164.165,313.318 165.63,315.104 166.631,317.423C167.632,319.743 168.132,323.1 168.132,327.494C168.132,332.068 167.636,335.71 166.643,338.419C165.65,341.129 164.173,343.192 162.212,344.608C160.25,346.024 157.951,346.732 155.315,346.732C152.515,346.732 150.228,345.955 148.454,344.401C146.68,342.847 145.614,340.662 145.256,337.846ZM163.249,322.05C163.249,319.527 162.578,317.525 161.235,316.044C159.892,314.563 158.277,313.822 156.389,313.822C154.436,313.822 152.735,314.62 151.286,316.215C149.838,317.81 149.113,319.877 149.113,322.416C149.113,324.695 149.801,326.546 151.176,327.97C152.552,329.394 154.249,330.106 156.267,330.106C158.301,330.106 159.974,329.394 161.284,327.97C162.594,326.546 163.249,324.573 163.249,322.05Z" style="fill:white;fill-rule:nonzero;"/>
    </g>
</svg>
