<?xml version="1.0" encoding="UTF-8" standalone="no"?>
<!DOCTYPE svg PUBLIC "-//W3C//DTD SVG 1.1//EN" "http://www.w3.org/Graphics/SVG/1.1/DTD/svg11.dtd">
<svg width="100%" height="100%" viewBox="0 0 456 456" version="1.1" xmlns="http://www.w3.org/2000/svg" xmlns:xlink="http://www.w3.org/1999/xlink" xml:space="preserve" xmlns:serif="http://www.serif.com/" style="fill-rule:evenodd;clip-rule:evenodd;stroke-linejoin:round;stroke-miterlimit:2;">
    <g transform="matrix(3.20556,0,0,3.20556,-263.288,-299.931)">
        <path d="M114.294,174.515L114.294,159.354L100.5,138.724L106.261,138.724L113.317,149.515C114.619,151.533 115.832,153.552 116.955,155.57C118.029,153.698 119.331,151.59 120.861,149.247L127.794,138.724L133.312,138.724L119.03,159.354L119.03,174.515L114.294,174.515Z" style="fill:white;fill-rule:nonzero;"/>
    </g>
    <g transform="matrix(3.20556,0,0,3.20556,-263.288,-299.931)">
        <path d="M129.919,174.515L143.664,138.724L148.766,138.724L163.415,174.515L158.019,174.515L153.844,163.675L138.878,163.675L134.948,174.515L129.919,174.515ZM140.246,159.818L152.379,159.818L148.644,149.906C147.505,146.895 146.658,144.421 146.105,142.484C145.649,144.779 145.006,147.057 144.176,149.32L140.246,159.818Z" style="fill:white;fill-rule:nonzero;"/>
    </g>
    <g transform="matrix(3.20556,0,0,3.20556,-263.288,-299.931)">
        <path d="M165.587,163.016L170.055,162.625C170.267,164.416 170.759,165.885 171.532,167.032C172.305,168.18 173.506,169.107 175.133,169.815C176.761,170.523 178.592,170.877 180.627,170.877C182.433,170.877 184.028,170.609 185.412,170.072C186.795,169.535 187.825,168.798 188.5,167.862C189.176,166.926 189.513,165.905 189.513,164.798C189.513,163.675 189.188,162.695 188.537,161.856C187.886,161.018 186.811,160.314 185.314,159.745C184.354,159.37 182.23,158.788 178.942,157.999C175.654,157.21 173.351,156.465 172.033,155.765C170.324,154.87 169.05,153.759 168.212,152.433C167.374,151.106 166.955,149.621 166.955,147.977C166.955,146.17 167.467,144.482 168.493,142.911C169.518,141.34 171.016,140.148 172.985,139.334C174.954,138.521 177.143,138.114 179.552,138.114C182.205,138.114 184.545,138.541 186.571,139.395C188.598,140.25 190.156,141.507 191.247,143.167C192.337,144.828 192.923,146.707 193.004,148.807L188.463,149.149C188.219,146.887 187.393,145.178 185.985,144.022C184.578,142.866 182.498,142.289 179.748,142.289C176.883,142.289 174.796,142.813 173.485,143.863C172.175,144.913 171.52,146.179 171.52,147.66C171.52,148.945 171.984,150.003 172.912,150.833C173.823,151.664 176.204,152.514 180.053,153.385C183.902,154.256 186.543,155.016 187.975,155.667C190.058,156.628 191.597,157.844 192.589,159.317C193.582,160.79 194.079,162.487 194.079,164.408C194.079,166.312 193.533,168.106 192.443,169.791C191.352,171.476 189.786,172.786 187.743,173.722C185.701,174.658 183.402,175.125 180.846,175.125C177.607,175.125 174.893,174.653 172.704,173.709C170.515,172.765 168.798,171.345 167.553,169.449C166.308,167.553 165.653,165.409 165.587,163.016Z" style="fill:white;fill-rule:nonzero;"/>
    </g>
    <g transform="matrix(3.20556,0,0,3.20556,-263.288,-299.931)">
        <path d="M202.331,165.628L200.988,146.659L200.988,138.724L206.432,138.724L206.432,146.659L205.163,165.628L202.331,165.628ZM201.183,174.515L201.183,169.51L206.237,169.51L206.237,174.515L201.183,174.515Z" style="fill:white;fill-rule:nonzero;"/>
    </g>
</svg>
